<svg width="800" height="800" viewBox="0 0 800 800" fill="none" xmlns="http://www.w3.org/2000/svg">
  <defs><linearGradient id="g" x1="0" y1="0" x2="800" y2="800"><stop stop-color="#0e0e0c"/><stop offset="0.55" stop-color="#39372f"/><stop offset="1" stop-color="#918568"/></linearGradient></defs>
  <rect width="800" height="800" fill="url(#g)"/>
  <circle cx="635" cy="150" r="190" fill="#fff0ca" opacity=".1"/>
  <ellipse cx="400" cy="562" rx="260" ry="78" fill="#080807" opacity=".35"/>
  <path d="M235 350c105-72 224-73 330 0l-58 190c-25 82-189 82-214 0l-58-190Z" fill="#fff8e7" opacity=".86"/>
  <g fill="#111"><ellipse cx="310" cy="410" rx="22" ry="13" transform="rotate(-20 310 410)"/><ellipse cx="390" cy="390" rx="24" ry="13"/><ellipse cx="465" cy="430" rx="24" ry="14" transform="rotate(18 465 430)"/><ellipse cx="360" cy="480" rx="25" ry="14" transform="rotate(32 360 480)"/><ellipse cx="445" cy="500" rx="23" ry="13" transform="rotate(-28 445 500)"/></g>
  <text x="400" y="700" text-anchor="middle" font-family="Arial, sans-serif" font-size="58" font-weight="800" fill="#fff8df">حبة البركة</text>
</svg>
