<svg width="800" height="800" viewBox="0 0 800 800" fill="none" xmlns="http://www.w3.org/2000/svg">
  <defs><linearGradient id="g" x1="0" y1="0" x2="800" y2="800"><stop stop-color="#173d25"/><stop offset="0.58" stop-color="#778d4e"/><stop offset="1" stop-color="#d9d59b"/></linearGradient></defs>
  <rect width="800" height="800" fill="url(#g)"/>
  <circle cx="175" cy="160" r="190" fill="#f8f1c8" opacity=".15"/>
  <ellipse cx="400" cy="570" rx="250" ry="80" fill="#0a2113" opacity=".32"/>
  <path d="M250 365c90-74 210-90 300-22l-55 185c-23 77-166 77-190 0l-55-163Z" fill="#fff8e7" opacity=".86"/>
  <path d="M312 450c75-80 141-101 213-145" stroke="#355d2d" stroke-width="15" stroke-linecap="round"/>
  <path d="M350 426c-39-12-68-6-97 21M392 389c-42-6-72 4-102 37M436 353c40-16 70-14 105 7M486 322c38-12 68-7 98 14" stroke="#b9cc77" stroke-width="24" stroke-linecap="round"/>
  <text x="400" y="700" text-anchor="middle" font-family="Arial, sans-serif" font-size="58" font-weight="800" fill="#fff8df">زعتر بري</text>
</svg>
